<?xml version="1.0" encoding="UTF-8" standalone="no"?>
<!DOCTYPE svg PUBLIC "-//W3C//DTD SVG 1.1//EN"
 "http://www.w3.org/Graphics/SVG/1.1/DTD/svg11.dtd">
<!-- Generated by graphviz version 4.0.0 (0)
 -->
<!-- Title: netgraph Pages: 1 -->
<svg width="256pt" height="281pt"
 viewBox="0.00 0.00 255.55 281.00" xmlns="http://www.w3.org/2000/svg" xmlns:xlink="http://www.w3.org/1999/xlink">
<g id="graph0" class="graph" transform="scale(1 1) rotate(0) translate(4 277)">
<title>netgraph</title>
<polygon fill="white" stroke="transparent" points="-4,4 -4,-277 251.55,-277 251.55,4 -4,4"/>
<!-- 4 -->
<g id="node1" class="node">
<title>4</title>
<polygon fill="none" stroke="black" points="0,-72.5 0,-114.5 73,-114.5 73,-72.5 0,-72.5"/>
<text text-anchor="middle" x="36.5" y="-100.9" font-family="Times,serif" font-size="12.00">igb3:</text>
<polyline fill="none" stroke="black" points="0,-93.5 73,-93.5 "/>
<text text-anchor="middle" x="20" y="-79.9" font-family="Times,serif" font-size="12.00">ether</text>
<polyline fill="none" stroke="black" points="40,-72.5 40,-93.5 "/>
<text text-anchor="middle" x="56.5" y="-79.9" font-family="Times,serif" font-size="12.00">[4]:</text>
</g>
<!-- 4.lower -->
<g id="node4" class="node">
<title>4.lower</title>
<polygon fill="none" stroke="black" points="63.5,-10.54 63.5,-25.46 47.68,-36 25.32,-36 9.5,-25.46 9.5,-10.54 25.32,0 47.68,0 63.5,-10.54"/>
<text text-anchor="middle" x="36.5" y="-15.5" font-family="Times,serif" font-size="10.00">lower</text>
</g>
<!-- 4&#45;&#45;4.lower -->
<g id="edge1" class="edge">
<title>4&#45;&#45;4.lower</title>
<path fill="none" stroke="black" stroke-width="2" d="M36.5,-72.42C36.5,-61.02 36.5,-46.92 36.5,-36.07"/>
</g>
<!-- d -->
<g id="node2" class="node">
<title>d</title>
<polygon fill="none" stroke="black" points="166.5,-151.5 166.5,-193.5 236.5,-193.5 236.5,-151.5 166.5,-151.5"/>
<text text-anchor="middle" x="201.5" y="-179.9" font-family="Times,serif" font-size="12.00">vlan0:</text>
<polyline fill="none" stroke="black" points="166.5,-172.5 236.5,-172.5 "/>
<text text-anchor="middle" x="185" y="-158.9" font-family="Times,serif" font-size="12.00">vlan</text>
<polyline fill="none" stroke="black" points="203.5,-151.5 203.5,-172.5 "/>
<text text-anchor="middle" x="220" y="-158.9" font-family="Times,serif" font-size="12.00">[d]:</text>
</g>
<!-- d.vlan0 -->
<g id="node5" class="node">
<title>d.vlan0</title>
<polygon fill="none" stroke="black" points="145.5,-86.04 145.5,-100.96 129.68,-111.5 107.32,-111.5 91.5,-100.96 91.5,-86.04 107.32,-75.5 129.68,-75.5 145.5,-86.04"/>
<text text-anchor="middle" x="118.5" y="-91" font-family="Times,serif" font-size="10.00">vlan0</text>
</g>
<!-- d&#45;&#45;d.vlan0 -->
<g id="edge2" class="edge">
<title>d&#45;&#45;d.vlan0</title>
<path fill="none" stroke="black" stroke-width="2" d="M179.69,-151.27C165.28,-137.9 146.75,-120.71 133.87,-108.76"/>
</g>
<!-- d.downstream -->
<g id="node6" class="node">
<title>d.downstream</title>
<polygon fill="none" stroke="black" points="247.61,-86.04 247.61,-100.96 222.94,-111.5 188.06,-111.5 163.39,-100.96 163.39,-86.04 188.06,-75.5 222.94,-75.5 247.61,-86.04"/>
<text text-anchor="middle" x="205.5" y="-91" font-family="Times,serif" font-size="10.00">downstream</text>
</g>
<!-- d&#45;&#45;d.downstream -->
<g id="edge3" class="edge">
<title>d&#45;&#45;d.downstream</title>
<path fill="none" stroke="black" stroke-width="2" d="M202.55,-151.27C203.19,-138.97 204,-123.44 204.61,-111.73"/>
</g>
<!-- 10 -->
<g id="node3" class="node">
<title>10</title>
<polygon fill="none" stroke="black" points="77,-230.5 77,-272.5 160,-272.5 160,-230.5 77,-230.5"/>
<text text-anchor="middle" x="118.5" y="-258.9" font-family="Times,serif" font-size="12.00">ngeth0:</text>
<polyline fill="none" stroke="black" points="77,-251.5 160,-251.5 "/>
<text text-anchor="middle" x="99" y="-237.9" font-family="Times,serif" font-size="12.00">eiface</text>
<polyline fill="none" stroke="black" points="121,-230.5 121,-251.5 "/>
<text text-anchor="middle" x="140.5" y="-237.9" font-family="Times,serif" font-size="12.00">[10]:</text>
</g>
<!-- 10.ether -->
<g id="node7" class="node">
<title>10.ether</title>
<polygon fill="none" stroke="black" points="145.5,-165.04 145.5,-179.96 129.68,-190.5 107.32,-190.5 91.5,-179.96 91.5,-165.04 107.32,-154.5 129.68,-154.5 145.5,-165.04"/>
<text text-anchor="middle" x="118.5" y="-170" font-family="Times,serif" font-size="10.00">ether</text>
</g>
<!-- 10&#45;&#45;10.ether -->
<g id="edge5" class="edge">
<title>10&#45;&#45;10.ether</title>
<path fill="none" stroke="black" stroke-width="2" d="M118.5,-230.27C118.5,-217.97 118.5,-202.44 118.5,-190.73"/>
</g>
<!-- d.downstream&#45;&#45;4.lower -->
<g id="edge4" class="edge">
<title>d.downstream&#45;&#45;4.lower</title>
<path fill="none" stroke="black" d="M176.83,-80.03C143.49,-65.53 89.17,-41.91 58.82,-28.71"/>
</g>
<!-- 10.ether&#45;&#45;d.vlan0 -->
<g id="edge6" class="edge">
<title>10.ether&#45;&#45;d.vlan0</title>
<path fill="none" stroke="black" d="M118.5,-154.41C118.5,-141.65 118.5,-124.29 118.5,-111.54"/>
</g>
</g>
</svg>
